<svg width="32" height="32"  viewBox="0 0 128.000000 128.000000" fill="none" xmlns="http://www.w3.org/2000/svg">
    <g transform="translate(0.000000,128.000000) scale(0.100000,-0.100000)"
       fill="#000" stroke="none">
        <path d="M544 1271 c-248 -40 -454 -227 -520 -472 -22 -83 -23 -234 -1 -316
58 -220 227 -392 453 -459 80 -24 248 -24 328 0 226 67 393 236 452 457 22 84
22 234 0 318 -58 218 -226 390 -444 454 -65 20 -200 28 -268 18z m263 -391
c29 -19 44 -54 50 -120 8 -90 -8 -131 -78 -189 -34 -29 -74 -53 -94 -57 -24
-4 -35 -12 -39 -30 -4 -13 -29 -42 -57 -64 -43 -34 -58 -40 -99 -40 -80 0 -80
1 -80 232 l0 201 48 44 47 44 140 -3 c100 -2 146 -7 162 -18z"/>
        <path d="M504 877 c-2 -7 -3 -102 -2 -212 l3 -200 60 0 60 0 3 56 3 56 73 6
c118 9 136 30 136 158 0 93 -9 115 -55 135 -46 19 -273 20 -281 1z m261 -62
c21 -20 25 -34 25 -80 0 -46 -4 -60 -25 -80 -22 -22 -32 -25 -105 -25 l-80 0
0 -55 c0 -30 -4 -55 -10 -55 -11 0 -14 302 -3 313 3 4 44 7 90 7 76 0 86 -2
108 -25z"/>
        <path d="M580 735 l0 -95 80 0 c98 0 120 15 120 83 0 91 -20 107 -130 107
l-70 0 0 -95z m135 0 c0 -40 0 -40 -42 -43 l-43 -3 0 46 0 46 43 -3 c42 -3 42
-3 42 -43z"/>
    </g>
</svg>
